<?xml version="1.0" encoding="UTF-8" standalone="no"?>
<svg width="20px" height="20px" viewBox="0 0 20 20" version="1.1" xmlns="http://www.w3.org/2000/svg" xmlns:xlink="http://www.w3.org/1999/xlink">
    <!-- Generator: Sketch 48.2 (47327) - http://www.bohemiancoding.com/sketch -->
    <title>ic_info</title>
    <desc>Created with Sketch.</desc>
    <defs></defs>
    <g id="Action-(162)" stroke="none" stroke-width="1" fill="none" fill-rule="evenodd" transform="translate(-818.000000, -146.000000)">
        <g id="ic_info" transform="translate(816.000000, 144.000000)">
            <polygon id="Bounds" fill-opacity="0.1" fill="#FF0000" opacity="0" points="0 0 24 0 24 24 0 24"></polygon>
            <path d="M2,12 C2,17.52 6.48,22 12,22 C17.52,22 22,17.52 22,12 C22,6.48 17.52,2 12,2 C6.48,2 2,6.48 2,12 Z M11,16 L11,12 C11,11.4477153 11.4477153,11 12,11 L12,11 C12.5522847,11 13,11.4477153 13,12 L13,16 C13,16.5522847 12.5522847,17 12,17 L12,17 C11.4477153,17 11,16.5522847 11,16 Z M11,8 L11,8 C11,7.44771525 11.4477153,7 12,7 L12,7 C12.5522847,7 13,7.44771525 13,8 L13,8 C13,8.55228475 12.5522847,9 12,9 L12,9 C11.4477153,9 11,8.55228475 11,8 Z" id="Shape" fill-opacity="0.7" fill="#FFFFFF"></path>
        </g>
    </g>
</svg>