<?xml version="1.0" encoding="UTF-8" standalone="no"?>
<svg width="13px" height="22px" viewBox="0 0 13 22" version="1.1" xmlns="http://www.w3.org/2000/svg" xmlns:xlink="http://www.w3.org/1999/xlink">
    <!-- Generator: Sketch 48.2 (47327) - http://www.bohemiancoding.com/sketch -->
    <title>ic_phone_iphone</title>
    <desc>Created with Sketch.</desc>
    <defs></defs>
    <g id="Hardware-(41)" stroke="none" stroke-width="1" fill="none" fill-rule="evenodd" transform="translate(-485.000000, -97.000000)">
        <g id="ic_phone_iphone" transform="translate(480.000000, 96.000000)">
            <polygon id="Bounds" fill-opacity="0.1" fill="#FF0000" opacity="0" points="0 0 24 0 24 24 0 24"></polygon>
            <path d="M15.5,1 L7.5,1 C6.12,1 5,2.12 5,3.5 L5,20.5 C5,21.88 6.12,23 7.5,23 L15.5,23 C16.88,23 18,21.88 18,20.5 L18,3.5 C18,2.12 16.88,1 15.5,1 L15.5,1 Z M11.5,22 C10.67,22 10,21.33 10,20.5 C10,19.67 10.67,19 11.5,19 C12.33,19 13,19.67 13,20.5 C13,21.33 12.33,22 11.5,22 L11.5,22 Z M16,18 L7,18 L7,4 L16,4 L16,18 L16,18 Z" id="Shape" fill-opacity="0.7" fill="#000000"></path>
        </g>
    </g>
</svg>