<?xml version="1.0" encoding="UTF-8" standalone="no"?>
<svg width="24px" height="24px" viewBox="0 0 24 24" version="1.1" xmlns="http://www.w3.org/2000/svg" xmlns:xlink="http://www.w3.org/1999/xlink">
    <!-- Generator: Sketch 48.2 (47327) - http://www.bohemiancoding.com/sketch -->
    <title>Logo_MedTrack</title>
    <desc>Created with Sketch.</desc>
    <defs></defs>
    <g id="Action-(162)" stroke="none" stroke-width="1" fill="none" fill-rule="evenodd" transform="translate(-478.000000, -432.000000)">
        <g id="Logo_MedTrack" transform="translate(478.000000, 432.000000)" fill="#FFFFFF">
            <path d="M19.0621235,8.60755885 L16.9370864,1.23040658 C16.7691852,0.648085597 17.1697778,0.171147325 17.8275556,0.171147325 L22.6180741,0.171147325 C23.2754568,0.171147325 23.8131358,0.664019753 23.8131358,1.26662058 L23.8131358,8.57098272 C23.8131358,9.17358354 23.2754568,9.66681811 22.6180741,9.66681811 L20.5625679,9.66681811 C19.9051852,9.66681811 19.2300247,9.18987984 19.0621235,8.60755885 Z M5.91105882,10.066198 L1.18635294,10.066198 C0.533803922,10.066198 7.84313726e-05,9.55295892 7.84313726e-05,8.92545724 L7.84313726e-05,1.31926195 C7.84313726e-05,0.691760269 0.533803922,0.178144108 1.18635294,0.178144108 L12.2181176,0.178144108 C12.8710588,0.178144108 13.2279216,0.662346128 13.0122353,1.2547771 L9.10596078,11.9675582 C8.88988235,12.5596121 8.46635294,12.5890263 8.16478431,12.0327973 L7.64635294,11.077969 C7.34439216,10.521363 6.56360784,10.066198 5.91105882,10.066198 Z" fill-opacity="0.7"></path>
            <path d="M17.7262095,13.9351051 C17.0923048,13.9351051 16.4412571,13.4299737 16.2793524,12.8123778 L15.0077333,7.96027677 C14.8458286,7.34229697 14.5422095,7.33039798 14.3323048,7.93302424 L9.5391619,21.7066808 C9.32925714,22.3093071 8.91782857,22.3392465 8.62449524,21.772701 L5.0991619,14.9649434 C4.80582857,14.398398 4.04735238,13.9351051 3.41344762,13.9351051 L1.15249524,13.9351051 C0.518590476,13.9351051 0.000114285714,14.4575091 0.000114285714,15.0962162 L0.000114285714,22.8382364 C0.000114285714,23.4769434 0.518590476,24.0001152 1.15249524,24.0001152 L22.6675429,24.0001152 C23.3014476,24.0001152 23.8199238,23.4769434 23.8199238,22.8382364 L23.8199238,15.0962162 C23.8199238,14.4575091 23.3014476,13.9351051 22.6675429,13.9351051 L17.7262095,13.9351051 Z" id="Fill-4"></path>
        </g>
    </g>
</svg>